<svg width="42" height="42" viewBox="0 0 42 42" fill="none" xmlns="http://www.w3.org/2000/svg">
<rect width="42" height="42" rx="21" fill="#50AC58" fill-opacity="0.1"/>
<path d="M27.4 14H14.6C13.7176 14 13 14.7288 13 15.625V25.375C13 26.2712 13.7176 27 14.6 27H27.4C28.2824 27 29 26.2712 29 25.375V15.625C29 14.7288 28.2824 14 27.4 14ZM27.4 15.625V16.0402L21 21.0964L14.6 16.041V15.625H27.4ZM14.6 25.375V18.0982L20.5088 22.7661C20.6528 22.8806 20.8264 22.9375 21 22.9375C21.1736 22.9375 21.3472 22.8806 21.4912 22.7661L27.4 18.0982L27.4016 25.375H14.6Z" fill="#50AC58"/>
</svg>
