<svg width="109" height="50" viewBox="0 0 109 50" fill="none" xmlns="http://www.w3.org/2000/svg">
<path d="M39.024 32.8V40H36.304V19.936H43.12C45.9573 19.936 47.984 20.4266 49.2 21.408C50.4373 22.368 51.056 23.968 51.056 26.208C51.056 27.9573 50.6613 29.3546 49.872 30.4C49.104 31.424 47.9306 32.1173 46.352 32.48L51.6 40H48.336L43.472 32.8H39.024ZM48.304 26.208C48.304 24.8426 47.9093 23.872 47.12 23.296C46.3306 22.6986 44.9973 22.4 43.12 22.4H39.024V30.4H43.12C44.9546 30.4 46.2773 30.0693 47.088 29.408C47.8986 28.7466 48.304 27.68 48.304 26.208Z" fill="#1F3337"/>
<path d="M59.7632 40.256C58.0139 40.256 56.7019 39.8186 55.8272 38.944C54.9525 38.0693 54.5152 36.7573 54.5152 35.008V24.192H57.1392V34.688C57.1392 35.776 57.4165 36.5653 57.9712 37.056C58.5259 37.5466 59.4005 37.792 60.5952 37.792C61.3205 37.792 62.0459 37.7066 62.7712 37.536C63.5179 37.344 64.2645 37.056 65.0112 36.672V24.192H67.6352V40H65.2352L65.1072 38.688H65.0432C63.9339 39.264 62.9739 39.6693 62.1632 39.904C61.3525 40.1386 60.5525 40.256 59.7632 40.256Z" fill="#1F3337"/>
<path d="M79.67 23.872C81.8246 23.872 83.3606 24.512 84.278 25.792C85.2166 27.0506 85.686 29.12 85.686 32C85.686 34.944 85.11 37.056 83.958 38.336C82.806 39.616 80.8753 40.256 78.166 40.256C76.95 40.256 75.8086 40.1813 74.742 40.032C73.6753 39.904 72.7046 39.7013 71.83 39.424V18.72H74.454V25.28C75.2006 24.832 76.022 24.4906 76.918 24.256C77.814 24 78.7313 23.872 79.67 23.872ZM83.062 32C83.062 29.8453 82.7526 28.352 82.134 27.52C81.5366 26.6666 80.406 26.24 78.742 26.24C77.974 26.24 77.2166 26.3466 76.47 26.56C75.7233 26.752 75.0513 27.0293 74.454 27.392V37.408C74.9233 37.536 75.4566 37.6426 76.054 37.728C76.6513 37.792 77.302 37.824 78.006 37.824C79.99 37.824 81.3233 37.408 82.006 36.576C82.71 35.744 83.062 34.2186 83.062 32Z" fill="#1F3337"/>
<path d="M101.015 36.928V39.136C100.461 39.4346 99.6392 39.7013 98.5512 39.936C97.4845 40.1493 96.3965 40.256 95.2872 40.256C92.8125 40.256 91.0419 39.616 89.9752 38.336C88.9085 37.056 88.3752 34.944 88.3752 32C88.3752 29.1626 88.9299 27.104 90.0392 25.824C91.1485 24.5226 92.9192 23.872 95.3512 23.872C97.6125 23.872 99.2339 24.384 100.215 25.408C101.197 26.4106 101.687 28.096 101.687 30.464C101.687 30.8906 101.677 31.2853 101.655 31.648C101.634 32.0106 101.591 32.448 101.527 32.96H91.0312C91.0525 34.7093 91.4045 35.9573 92.0872 36.704C92.7912 37.4506 93.9965 37.824 95.7032 37.824C96.6205 37.824 97.5805 37.7386 98.5832 37.568C99.5859 37.3973 100.397 37.184 101.015 36.928ZM99.2872 30.112C99.2659 28.704 98.9565 27.712 98.3592 27.136C97.7619 26.5386 96.7592 26.24 95.3512 26.24C93.7725 26.24 92.6525 26.5813 91.9912 27.264C91.3512 27.9253 91.0312 29.0986 91.0312 30.784H99.2552C99.2552 30.7413 99.2552 30.6453 99.2552 30.496C99.2765 30.3253 99.2872 30.1973 99.2872 30.112Z" fill="#1F3337"/>
<path d="M108.089 21.44H105.273V18.72H108.089V21.44ZM102.969 45.184C102.563 45.184 102.201 45.1733 101.881 45.152C101.539 45.1306 101.134 45.0773 100.665 44.992V42.688C101.113 42.752 101.443 42.784 101.657 42.784C101.849 42.8053 102.03 42.816 102.201 42.816C103.353 42.816 104.163 42.5706 104.633 42.08C105.123 41.5893 105.369 40.7466 105.369 39.552V24.192H107.993V39.84C107.993 41.6106 107.566 42.944 106.713 43.84C105.881 44.736 104.633 45.184 102.969 45.184Z" fill="#1F3337"/>
<path d="M39.4446 0.220174L35.3442 0.0143375C31.3501 -0.192332 27.8163 1.8752 25.5533 3.64022C24.4703 4.4844 23.487 5.58358 22.5474 6.9986C20.9555 9.39779 17.0767 12.0353 15.5062 13.0437L14.8573 12.0387C14.3936 11.3237 13.4425 11.1212 12.7359 11.5887L7.05105 15.347C6.70764 15.5737 6.47294 15.922 6.38894 16.3279C6.30494 16.7329 6.38152 17.1471 6.60635 17.4946L6.99258 18.0921L4.96341 19.4338C4.67105 19.6271 4.47011 19.9238 4.39847 20.2696C4.32682 20.6163 4.3927 20.9696 4.58376 21.2655L6.50341 24.238C6.69446 24.5338 6.98764 24.7372 7.3294 24.8097C7.41999 24.8288 7.51058 24.838 7.60117 24.838C7.85235 24.838 8.09858 24.7647 8.31352 24.6222L10.0363 23.483C10.7125 25.038 11.2436 26.658 11.6233 28.333H9.05882V37.4998C9.05882 45.1366 4.16376 47.8425 3.18376 48.3066C3.16894 48.3133 3.15906 48.3258 3.14506 48.3333H0V50H2.89717H31.0553H34.5882V48.3333H31.4827L31.467 48.325C30.613 47.8725 26.3537 45.2199 26.3537 37.4998V28.333H23.3825C24.5156 26.973 25.3087 25.3788 25.6587 23.6888L25.7806 23.0996L25.1357 22.7196C23.067 21.5005 21.1705 19.9838 19.4937 18.2504C19.7672 18.0379 20.0505 17.8146 20.3346 17.5871C21.8285 16.3896 23.1996 14.8829 24.5247 12.9795C27.5108 8.69112 33.082 6.28609 34.7183 5.65108C35.0477 5.52274 35.3928 5.46691 35.7444 5.48441L39.1769 5.65775C39.9041 5.68775 40.5802 5.44441 41.1138 4.95524C41.6475 4.4669 41.9613 3.79855 41.9967 3.07438C42.07 1.57436 40.9253 0.295175 39.4446 0.220174ZM9.3207 21.9663L7.6967 23.0396L6.14846 20.6421L7.89352 19.4879L7.95776 19.5879C7.97917 19.6204 7.99729 19.6546 8.0187 19.6871C8.47658 20.4046 8.91387 21.1663 9.3207 21.9663ZM13.3123 28.318C13.4178 28.3255 13.5223 28.3314 13.6278 28.3347H13.3165C13.3156 28.3289 13.314 28.323 13.3123 28.318ZM28.7321 48.335H24.7059V45.8349C24.7059 45.3749 24.3369 45.0016 23.8823 45.0016C23.4277 45.0016 23.0588 45.3749 23.0588 45.8349V48.335H20.5882V43.3349C20.5882 42.8749 20.2193 42.5016 19.7647 42.5016C19.3101 42.5016 18.9412 42.8749 18.9412 43.3349V48.335H16.4706V46.6683C16.4706 46.2083 16.1016 45.8349 15.647 45.8349C15.1925 45.8349 14.8235 46.2083 14.8235 46.6683V48.335H12.3529V45.8349C12.3529 45.3749 11.984 45.0016 11.5294 45.0016C11.0748 45.0016 10.7059 45.3749 10.7059 45.8349V48.335H6.12294C8.15046 46.615 10.7059 43.2974 10.7059 37.5015V30.0014H11.9626H18.1176V31.6681C18.1176 32.1281 18.4866 32.5014 18.9412 32.5014C19.3957 32.5014 19.7647 32.1281 19.7647 31.6681V30.0014H21.4117V32.5014C21.4117 32.9614 21.7807 33.3348 22.2353 33.3348C22.6899 33.3348 23.0588 32.9614 23.0588 32.5014V30.0014H24.7059V37.5015C24.7059 43.3199 26.9508 46.6266 28.7321 48.335ZM21.0856 28.3347H14.1639C15.7442 28.293 17.2743 27.8355 18.6085 26.963C20.1872 25.9297 21.3533 24.4122 21.9899 22.6213C22.6133 23.078 23.249 23.5188 23.907 23.9222C23.4368 25.5905 22.4527 27.133 21.0856 28.3347ZM20.6055 21.5388C20.1452 23.2138 19.1347 24.6322 17.7141 25.5622C16.2935 26.4922 14.5954 26.848 12.8841 26.5989C12.4995 25.2122 12.0153 23.8647 11.433 22.5605L11.4405 22.5555L11.3178 22.2988C11.0098 21.6255 10.6721 20.9663 10.3122 20.3179C10.2834 20.2663 10.2554 20.2138 10.2266 20.1621C9.94328 19.6596 9.65093 19.1621 9.33634 18.6754L8.04752 16.6787L13.5413 13.047L14.0988 13.9104L14.8309 15.0437C15.0796 15.4287 15.344 15.8087 15.6158 16.1862C15.7212 16.3337 15.8299 16.4787 15.9386 16.6246C16.1008 16.8404 16.2663 17.0546 16.4352 17.2679C16.5752 17.4454 16.7143 17.6229 16.8593 17.7971C17.0405 18.0154 17.229 18.2287 17.4176 18.4429C17.5626 18.6071 17.7034 18.7738 17.8516 18.9346L18.1465 19.2613L18.1588 19.2521C18.9296 20.0621 19.7474 20.8254 20.6055 21.5388ZM40.0087 3.71855C39.8011 3.90856 39.5318 4.00606 39.2593 3.99189L35.8268 3.81939C35.2495 3.79022 34.6747 3.88272 34.1287 4.09439C31.8903 4.96274 26.3439 7.4736 23.1782 12.0187C21.9446 13.7895 20.6805 15.1837 19.3126 16.2796C18.9939 16.5346 18.676 16.7854 18.3729 17.0196C18.3474 16.9896 18.3202 16.9604 18.2947 16.9296C18.041 16.6312 17.7997 16.3262 17.5618 16.0204C17.4605 15.8904 17.3567 15.762 17.2579 15.6295C17.066 15.3737 16.8865 15.1137 16.7053 14.8537C16.6089 14.7145 16.5118 14.5762 16.4179 14.4354C18.1292 13.337 22.1521 10.5861 23.9153 7.92778C24.7544 6.66359 25.6192 5.69358 26.5588 4.96024C28.6028 3.36688 31.7783 1.50019 35.2627 1.67853L39.363 1.88436C39.937 1.91353 40.3809 2.40937 40.3521 2.99104C40.3381 3.27021 40.2162 3.52855 40.0087 3.71855Z" fill="#0C6B48"/>
</svg>
