<svg width="66" height="66" viewBox="0 0 66 66" fill="none" xmlns="http://www.w3.org/2000/svg">
<rect y="0.00012207" width="66" height="66" rx="33" fill="#FBFBFB"/>
<path d="M27.0836 43.5835C27.7025 42.9647 28.0502 42.1253 28.0502 41.2501C28.0502 40.3749 27.7025 39.5355 27.0836 38.9166C26.4648 38.2978 25.6254 37.9501 24.7502 37.9501C23.875 37.9501 23.0356 38.2978 22.4167 38.9166C21.7979 39.5355 21.4502 40.3749 21.4502 41.2501C21.4502 42.1253 21.7979 42.9647 22.4167 43.5835C23.0356 44.2024 23.875 44.5501 24.7502 44.5501C25.6254 44.5501 26.4648 44.2024 27.0836 43.5835Z" stroke="#666666"/>
<path d="M43.5836 43.5835C44.2025 42.9647 44.5502 42.1253 44.5502 41.2501C44.5502 40.3749 44.2025 39.5355 43.5836 38.9166C42.9648 38.2978 42.1254 37.9501 41.2502 37.9501C40.375 37.9501 39.5356 38.2978 38.9167 38.9166C38.2979 39.5355 37.9502 40.3749 37.9502 41.2501C37.9502 42.1253 38.2979 42.9647 38.9167 43.5835C39.5356 44.2024 40.375 44.5501 41.2502 44.5501C42.1254 44.5501 42.9648 44.2024 43.5836 43.5835Z" stroke="#666666"/>
<path d="M34.6504 39.6001V23.1001C34.6504 22.6625 34.4766 22.2428 34.1671 21.9333C33.8577 21.6239 33.438 21.4501 33.0004 21.4501H19.8004C19.3628 21.4501 18.9431 21.6239 18.6337 21.9333C18.3242 22.2428 18.1504 22.6625 18.1504 23.1001V39.6001C18.1504 40.0377 18.3242 40.4574 18.6337 40.7668C18.9431 41.0762 19.3628 41.2501 19.8004 41.2501H21.4504M34.6504 39.6001C34.6504 40.0377 34.4766 40.4574 34.1671 40.7668C33.8577 41.0762 33.438 41.2501 33.0004 41.2501H28.0504M34.6504 39.6001V26.4001C34.6504 25.9625 34.8242 25.5428 35.1337 25.2333C35.4431 24.9239 35.8628 24.7501 36.3004 24.7501H40.5673C41.0049 24.7502 41.4245 24.9241 41.7338 25.2335L47.3669 30.8666C47.6764 31.176 47.8503 31.5956 47.8504 32.0332V39.6001C47.8504 40.0377 47.6766 40.4574 47.3671 40.7668C47.0577 41.0762 46.638 41.2501 46.2004 41.2501H44.5504M34.6504 39.6001C34.6504 40.0377 34.8242 40.4574 35.1337 40.7668C35.4431 41.0762 35.8628 41.2501 36.3004 41.2501H37.9504M21.4504 41.2501C21.4504 42.1253 21.7981 42.9647 22.4169 43.5835C23.0358 44.2024 23.8752 44.5501 24.7504 44.5501C25.6256 44.5501 26.465 44.2024 27.0838 43.5835C27.7027 42.9647 28.0504 42.1253 28.0504 41.2501M21.4504 41.2501C21.4504 40.3749 21.7981 39.5355 22.4169 38.9166C23.0358 38.2978 23.8752 37.9501 24.7504 37.9501C25.6256 37.9501 26.465 38.2978 27.0838 38.9166C27.7027 39.5355 28.0504 40.3749 28.0504 41.2501M44.5504 41.2501C44.5504 42.1253 44.2027 42.9647 43.5838 43.5835C42.965 44.2024 42.1256 44.5501 41.2504 44.5501C40.3752 44.5501 39.5358 44.2024 38.9169 43.5835C38.2981 42.9647 37.9504 42.1253 37.9504 41.2501M44.5504 41.2501C44.5504 40.3749 44.2027 39.5355 43.5838 38.9166C42.965 38.2978 42.1256 37.9501 41.2504 37.9501C40.3752 37.9501 39.5358 38.2978 38.9169 38.9166C38.2981 39.5355 37.9504 40.3749 37.9504 41.2501" stroke="#50AC58" stroke-width="1.5" stroke-linecap="round" stroke-linejoin="round"/>
</svg>
