<svg width="66" height="66" viewBox="0 0 66 66" fill="none" xmlns="http://www.w3.org/2000/svg">
<rect y="0.00012207" width="66" height="66" rx="33" fill="#FBFBFB"/>
<path d="M21.45 33.0001L24.0166 30.4334M24.0166 30.4334L33 21.4501L41.9833 30.4334M24.0166 30.4334V43.2667C24.0166 43.6071 24.1518 43.9335 24.3925 44.1742C24.6332 44.4149 24.9596 44.5501 25.3 44.5501H29.15M41.9833 30.4334L44.55 33.0001M41.9833 30.4334V43.2667C41.9833 43.6071 41.8481 43.9335 41.6074 44.1742C41.3667 44.4149 41.0403 44.5501 40.7 44.5501H36.85M29.15 44.5501C29.4903 44.5501 29.8167 44.4149 30.0574 44.1742C30.2981 43.9335 30.4333 43.6071 30.4333 43.2667V38.1334C30.4333 37.793 30.5685 37.4666 30.8092 37.226C31.0498 36.9853 31.3763 36.8501 31.7166 36.8501H34.2833C34.6236 36.8501 34.9501 36.9853 35.1907 37.226C35.4314 37.4666 35.5666 37.793 35.5666 38.1334V43.2667C35.5666 43.6071 35.7018 43.9335 35.9425 44.1742C36.1832 44.4149 36.5096 44.5501 36.85 44.5501M29.15 44.5501H36.85" stroke="#50AC58" stroke-width="1.5" stroke-linecap="round" stroke-linejoin="round"/>
</svg>
