<svg width="66" height="66" viewBox="0 0 66 66" fill="none" xmlns="http://www.w3.org/2000/svg">
<rect y="0.00012207" width="66" height="66" rx="33" fill="#FBFBFB"/>
<path d="M21.45 21.4528V28.6707H22.2902M22.2902 28.6707C23.2486 26.3005 24.9665 24.3153 27.1745 23.0261C29.3825 21.7369 31.9558 21.2166 34.4913 21.5468C37.0268 21.877 39.381 23.039 41.1851 24.8507C42.9892 26.6623 44.1411 29.0213 44.4604 31.5579M22.2902 28.6707H28.6687M44.55 44.5501V37.3322H43.7111M43.7111 37.3322C42.7513 39.701 41.033 41.6846 38.8252 42.9727C36.6175 44.2607 34.0448 44.7804 31.5101 44.4503C28.9754 44.1202 26.6217 42.9591 24.8175 41.1486C23.0133 39.3381 21.8605 36.9806 21.5395 34.445M43.7111 37.3322H37.3312" stroke="#50AC58" stroke-width="1.5" stroke-linecap="round" stroke-linejoin="round"/>
</svg>
